<?xml version="1.0" encoding="utf-8"?>
<!-- Generator: Adobe Illustrator 27.5.0, SVG Export Plug-In . SVG Version: 6.00 Build 0)  -->
<svg version="1.1" id="Calque_1" xmlns="http://www.w3.org/2000/svg" xmlns:xlink="http://www.w3.org/1999/xlink" x="0px" y="0px"
	 viewBox="0 0 299.2 78.5" style="enable-background:new 0 0 299.2 78.5;" xml:space="preserve">
<style type="text/css">
	.st0{fill:#FFFFFF;}
</style>
<g>
	<g>
		<g transform="translate(77.973379, 202.157728)">
			<g>
				<path class="st0" d="M-51-169c-6.7,1.9-18.4,2.5-16.6-7.9c1.2-7.1,7.8-12.7,15-12.2c6.6,0.5,6.6-9.7,0-10.3
					c-13.1-1-24.8,10.8-25.4,23.6c-0.3,6.5,2.7,12.5,8.5,15.8c6.6,3.7,14.3,2.7,21.2,0.8C-41.9-161-44.5-170.8-51-169z"/>
			</g>
		</g>
	</g>
	<g>
		<g transform="translate(108.171303, 202.157728)">
			<g>
				<path class="st0" d="M-35.9-182.5c-0.2-6-0.3-21.6-10.5-17.3c-6.6,2.8-11.6,11.4-14.4,17.6c-3.7,8.3-5.5,17.1-7.1,26.1
					c-1.2,6.4,8.7,9.2,9.9,2.7c0.6-3.5,1.2-6.9,2-10.3l10.3,0.3c0.1,2.7,0.2,5.5,0.3,8.2c0.1,6.6,10.4,6.6,10.2,0
					C-35.4-164.2-35.6-173.4-35.9-182.5z M-53.1-173.8c0.1-0.3,0.3-0.8,0.4-1.1c1.2-3.1,2.7-6,4.5-8.8c0.6-1,1.3-1.8,2-2.7
					c0.1,1.4,0,2.7,0.1,3.9c0.1,2.9,0.2,6,0.3,8.9C-48.3-173.6-50.7-173.7-53.1-173.8z"/>
			</g>
		</g>
	</g>
	<g>
		<g transform="translate(137.855653, 202.157728)">
			<g>
				<path class="st0" d="M-30.3-199.6c-7.6-1-15.2-1.1-22.9-0.3c-6.5,0.6-6.6,10.9,0,10.2c2.1-0.2,4-0.3,6-0.4
					c-0.6,10.1-1.2,20.1-1.8,30.1c-0.4,6.6,9.9,6.6,10.3,0c0.6-9.9,1.2-19.9,1.8-29.9c2.2,0.1,4.4,0.3,6.6,0.6
					C-23.7-188.4-23.7-198.7-30.3-199.6z"/>
			</g>
		</g>
	</g>
	<g>
		<g transform="translate(167.488637, 202.157728)">
			<g>
				<path class="st0" d="M-0.4-176.9c-0.1-6-0.8-13.3-5.6-17.5c-5.3-4.7-10.4-2.2-14.4,2.5c-0.1-0.2-0.3-0.5-0.5-0.8
					c-3.7-5.7-11.5-5.3-16-0.9c-4.9,4.8-7.3,12.6-8.8,19c-1.5,7.1-2,14.3-2.4,21.5c-0.4,6.6,9.9,6.6,10.3,0c0.5-8.6,1-17.4,4-25.6
					c0.7-1.8,1.4-3.6,2.5-5.3c0.3-0.5,1.2-2.4,2.1-2.6c0,0,0.1,0,0.1-0.1c0,0.1,0,0.2,0.1,0.3c0.8,1.1,0.5,4.3,0.6,5.6
					c0.1,2.5-0.1,5-0.3,7.5c-0.5,5.7,9.2,7.1,10.1,1.4c0.5-3.7,1.7-7.1,3.7-10.3c0.7-1,2.2-2.2,3.1-3.4c0.1,1.1,0.7,2.2,0.8,3.3
					c1.6,9-0.1,19.1-1,28.2c-0.7,6.6,9.6,6.5,10.3,0C-1.1-161.4-0.3-169.2-0.4-176.9z"/>
			</g>
		</g>
	</g>
	<g>
		<g transform="translate(208.420168, 202.157728)">
			<g>
				<path class="st0" d="M0.2-194.3c-5.6-9.2-20.3-10.4-27.6-2.9c-7.2,6.2-8.2,20.5-6.2,28.5c1.4,5.5,5.1,11.2,10.7,13
					c5.8,1.9,12.3-0.2,16.8-4c4.7-3.9,7.5-9.6,8.5-15.5C3.3-181.2,3.4-189,0.2-194.3z M-12.3-167.7c-0.2,0.1-0.3,0.3-0.5,0.5
					c-2.2,1.8-5.7,2.6-8,0.8c-1.5-1.1-2.2-2.9-2.7-4.7c-0.7-2.9-0.8-6-0.5-9c0.3-2.7,1-6.2,2.6-8.5c1.4-2,3.8-3.2,6.3-3.3
					c4.2-0.1,7,2.8,7.5,6.8C-6.8-179.1-7.7-172.1-12.3-167.7z"/>
			</g>
		</g>
	</g>
	<g>
		<g transform="translate(241.648153, 202.157728)">
			<g>
				<path class="st0" d="M11.3-194.3c-5.6-9.2-20.3-10.4-27.6-2.9c-7.2,6.2-8.2,20.5-6.2,28.5c1.4,5.5,5.1,11.2,10.7,13
					c5.8,1.9,12.3-0.2,16.8-4c4.7-3.9,7.5-9.6,8.5-15.5C14.4-181.2,14.5-189,11.3-194.3z M-1.2-167.7c-0.2,0.1-0.3,0.3-0.5,0.5
					c-2.2,1.8-5.7,2.6-8,0.8c-1.5-1.1-2.2-2.9-2.7-4.7c-0.7-2.9-0.8-6-0.5-9c0.3-2.7,1-6.2,2.6-8.5c1.4-2,3.8-3.2,6.3-3.3
					c4.2-0.1,7,2.8,7.5,6.8C4.3-179.1,3.4-172.1-1.2-167.7z"/>
			</g>
		</g>
	</g>
	<g>
		<g transform="translate(274.876138, 202.157728)">
			<g>
				<path class="st0" d="M14.4-194c-1.1,7.4-2.4,14.7-3.8,22.1l-6.1-13.9c-1.8-4.2-8.3-2.7-9.4,1.2c-2.9,10.7-5.3,21.4-7.4,32.3
					c-1.2,6.4,8.7,9.2,9.9,2.7c1.1-6,2.4-12,3.8-17.9c2.2,5,4.3,10,6.5,14.9c1.8,4.1,8.5,2.9,9.4-1.2c2.7-12.5,5.1-24.9,6.9-37.5
					C25.2-197.7,15.3-200.5,14.4-194z"/>
			</g>
		</g>
	</g>
	<g>
		<g transform="translate(96.58579, 223.417568)">
			<g>
				<path class="st0" d="M-71.6-145.3c0.4-0.1,0.6-0.3,0.6-0.6c0-0.4,0-0.8-0.1-1.7c-0.1-0.9-0.1-1.5-0.2-1.7c2.7,0.2,4.7,0,6.6-0.5
					c2.6-0.8,3.9-2.2,3.9-4.4c0-1.4-0.6-2.7-1.7-3.9c-2.6-2.8-6.2-2.8-9.7-0.8c-1.8,1.1-2.7,2.2-1.8,3.5c0.1,6.2,0.2,9.4,0.4,9.7
					C-73.3-145.1-72.1-145.1-71.6-145.3z M-71.7-156.7c1.4-1.1,2.9-1.6,4.3-1.3c1.7,0.4,4.2,1.6,4.2,3.5c0,3.3-4.8,3.7-8.4,3
					C-71.8-153.1-71.8-155.1-71.7-156.7z"/>
			</g>
		</g>
	</g>
	<g>
		<g transform="translate(114.432354, 223.417568)">
			<g>
				<path class="st0" d="M-67-145.2c0.6,0.1,1.5,0.1,1.5-1c0.1-1.7,0.1-1.8,0.3-5.6c1.9-0.3,3.9-0.4,6.1-0.2l0.6,0
					c0,2.3,0,4.2,0.1,5.5c0,1.1,0.7,1.5,1.9,1.3c0.5-0.1,0.7-0.3,0.7-0.6c0-1.8-0.1-4.1-0.1-6.1c0.4-0.1,0.6-0.5,0.6-0.8
					c0-0.4-0.3-0.6-0.6-0.8c-0.1-3.6-0.2-3.7-0.3-5.4c0-1.1-1-1.1-1.5-1c-0.5,0.1-0.8,0.5-0.8,1.3c0,0.6,0,0.7,0,0.8l0.1,1.5
					c0,0.6,0,1,0,2l-0.6-0.1c-2-0.2-4-0.2-6-0.1l0.1-4.9c0-0.3-0.2-0.5-0.7-0.6c-1.2-0.2-1.8,0.2-1.9,1.3c0,1.2-0.1,2.8-0.1,4.8
					c-0.4,0.3-0.6,0.6-0.7,1c-0.1,0.4,0,0.7,0.3,1c0.1,0.1,0.2,0.2,0.4,0.2c0,1.6,0.1,2.1,0,2.8l-0.1,1.5c0,0.1,0,0.2,0,0.8
					C-67.8-145.8-67.5-145.4-67-145.2z"/>
			</g>
		</g>
	</g>
	<g>
		<g transform="translate(131.89132, 223.417568)">
			<g>
				<path class="st0" d="M-55.4-145.1c4.6,0.2,8.8-3.3,8.8-7.9c0-3.9-3.2-7.4-7.2-7.4c-3.8,0-8.8,3.3-8.8,7.9
					C-62.6-148.5-59.4-145.4-55.4-145.1z M-59.4-152.9c0-2.9,2.1-5.3,4.9-5.3c3.4,0,4.8,2.7,5.2,5.7c0.5,3.2-2.2,5-5.1,5.4
					C-57.3-146.8-59.4-150-59.4-152.9z"/>
			</g>
		</g>
	</g>
	<g>
		<g transform="translate(151.55182, 223.417568)">
			<g>
				<path class="st0" d="M-49.3-145c0.5-0.1,0.7-0.6,0.7-0.9c0-2.3,0-5.1,0-7.3c-0.1-2.8-0.1-3.6-0.2-4.5l3.7,0
					c1.1,0.2,1.3-0.5,1.3-1c0-0.6-0.5-1.1-1.3-1.2l-2.2-0.3c-2.4-0.3-4.8-0.2-7.2,0.1c-1,0.2-1.5,0.8-1.6,1.3c-0.1,0.4,0,0.7,0.2,1
					c0.5,0.5,1.6,0.4,2.2,0.3c0.8-0.1,1.6-0.2,2.5-0.2l0,1.5c0,0.9-0.1,1.5-0.1,4.3c0,2.3,0,4.7,0,6.1
					C-51.1-144.9-50.5-144.8-49.3-145z"/>
			</g>
		</g>
	</g>
	<g>
		<g transform="translate(168.499174, 223.417568)">
			<g>
				<path class="st0" d="M-43.2-145.1c4.6,0.2,8.8-3.3,8.8-7.9c0-3.9-3.2-7.4-7.2-7.4c-3.8,0-8.8,3.3-8.8,7.9
					C-50.4-148.5-47.2-145.4-43.2-145.1z M-47.2-152.9c0-2.9,2.1-5.3,4.9-5.3c3.4,0,4.8,2.7,5.2,5.7c0.5,3.2-2.2,5-5.1,5.4
					C-45.1-146.8-47.2-150-47.2-152.9z"/>
			</g>
		</g>
	</g>
	<g>
		<g transform="translate(188.159671, 223.417568)">
			<g>
				<path class="st0" d="M-33.2-145.6c0.7-0.1,1.4-0.3,2.2-0.4l0.2-0.1c0.4-0.1,0.8-0.2,0.9-0.4c0.1-0.2,0.3-1.2,0.6-2.3
					c0.2-1.1,0.7-3.5-0.2-3.5c-0.5-0.2-3.6-0.4-5.7-0.2c-1.2,0.2-0.9,1.6-0.6,1.8c0.4,0.1,0.6,0.1,1.7,0.1c1.1,0.1,2,0.2,2.7,0.3
					l-0.1,1.1c0,0.5,0,0.9-0.1,1.2c-0.2,0-0.5,0.1-0.8,0.2c-1.2,0.3-1.9,0.4-2.7,0.4c-2,0.1-3.5-0.4-4.8-1.7
					c-0.3-0.3-0.5-0.7-0.8-1.1c-1.1-1.6-0.7-4.2,1-5.9c2.3-2.3,6-2,7.5-1.2c0.1,1.7,0.2,2.6,0.5,2.7c0.5,0.3,1.8,0.1,1.9-0.6
					c0.1-0.8-0.2-1.3-0.1-2.2c0.2-1.2,0.2-1.6-1-2.1c-1.7-0.7-5.2-1.1-7.7-0.2c-0.4,0.1-0.9,0.3-1.2,0.5c-1.8,0.9-3,2.4-3.5,4.4
					c-0.1,0.3-0.1,0.7-0.2,1c-0.4,2.1,0.1,4.2,1.3,5.7c0.7,1,1.8,1.8,3,2.3C-37.2-145-35.3-145.1-33.2-145.6z"/>
			</g>
		</g>
	</g>
	<g>
		<g transform="translate(206.951957, 223.417568)">
			<g>
				<path class="st0" d="M-34.8-145.3c0.4-0.1,0.6-0.3,0.6-0.6c0-0.4,0-0.8-0.1-1.7c-0.1-0.9-0.1-1.5-0.2-1.7h0.9
					c3.1,0,2.6,0.1,5.2,2.7c1.3,1.3,2.2,1.5,2.6,1.6c0.4,0.1,1.6-0.5,0.4-1.6c-0.2-0.2-1.6-1.2-2.8-3.1l0.3-0.1
					c2.6-0.8,3.9-2.2,3.9-4.4c0-1.4-0.6-2.7-1.7-3.9c-2.6-2.8-6.1-2.8-9.7-0.8c-1.9,1.1-2.7,2.2-1.9,3.5c0.1,6.2,0.2,9.4,0.4,9.7
					C-36.5-145.1-35.3-145.1-34.8-145.3z M-34.8-156.7c1.4-1.1,2.9-1.6,4.3-1.3c1.7,0.4,4.2,1.6,4.2,3.5c0,3.3-4.8,3.7-8.4,3
					C-34.9-153.1-34.9-155.1-34.8-156.7z"/>
			</g>
		</g>
	</g>
	<g>
		<g transform="translate(224.829532, 223.417568)">
			<g>
				<path class="st0" d="M-18.7-145.4c1.1-0.5,1-1.4,0.7-2c-2.1-4-3-5.9-4.3-9.4c-0.6-1.7-0.9-2.4-1.1-2.7c-0.4-0.9-2.2-0.7-2.5,0.2
					c-2.6,6.8-3.6,8.6-5.1,11.2c-0.5,0.8-0.9,1.6-0.3,2.5c0.8,1.2,2.3-0.6,2.9-2c3.3-0.3,4.3,0,7.1,0l0.8,1.4
					C-20.2-145.7-19.6-145-18.7-145.4z M-27.3-150c1.7-4.3,2-5.1,2.5-6.6c1.3,3.1,2,5,2.6,6.6C-24.5-150.1-25.1-150.1-27.3-150z"/>
			</g>
		</g>
	</g>
	<g>
		<g transform="translate(242.908649, 223.417568)">
			<g>
				<path class="st0" d="M-22.8-145.3c0.4-0.1,0.6-0.3,0.6-0.6c0-0.4,0-0.8-0.1-1.7c-0.1-0.9-0.1-1.5-0.2-1.7c2.7,0.2,4.7,0,6.6-0.5
					c2.6-0.8,3.9-2.2,3.9-4.4c0-1.4-0.6-2.7-1.7-3.9c-2.6-2.8-6.2-2.8-9.7-0.8c-1.8,1.1-2.7,2.2-1.8,3.5c0.1,6.2,0.2,9.4,0.4,9.7
					C-24.5-145.1-23.4-145.1-22.8-145.3z M-22.9-156.7c1.4-1.1,2.9-1.6,4.3-1.3c1.7,0.4,4.2,1.6,4.2,3.5c0,3.3-4.8,3.7-8.4,3
					C-23-153.1-23-155.1-22.9-156.7z"/>
			</g>
		</g>
	</g>
	<g>
		<g transform="translate(260.755209, 223.417568)">
			<g>
				<path class="st0" d="M-18.2-145.2c0.6,0.1,1.5,0.1,1.5-1c0.1-1.7,0.1-1.8,0.3-5.6c1.9-0.3,3.9-0.4,6.1-0.2l0.6,0
					c0,2.3,0,4.2,0.1,5.5c0,1.1,0.7,1.5,1.9,1.3c0.5-0.1,0.7-0.3,0.7-0.6c0-1.8-0.1-4.1-0.1-6.1c0.4-0.1,0.6-0.5,0.6-0.8
					c0-0.4-0.3-0.6-0.6-0.8c-0.1-3.6-0.2-3.7-0.3-5.4c0-1.1-1-1.1-1.5-1c-0.5,0.1-0.8,0.5-0.8,1.3c0,0.6,0,0.7,0,0.8l0.1,1.5
					c0,0.6,0,1,0,2l-0.6-0.1c-2-0.2-4-0.2-6-0.1l0.1-4.9c0-0.3-0.2-0.5-0.7-0.6c-1.2-0.2-1.8,0.2-1.9,1.3c0,1.2-0.1,2.8-0.1,4.8
					c-0.4,0.3-0.6,0.6-0.7,1c-0.1,0.4,0,0.7,0.3,1c0.1,0.1,0.2,0.2,0.4,0.2c0,1.6,0.1,2.1,0,2.8l-0.1,1.5c0,0.1,0,0.2,0,0.8
					C-19-145.8-18.7-145.4-18.2-145.2z"/>
			</g>
		</g>
	</g>
	<g>
		<g transform="translate(278.214171, 223.417568)">
			<g>
				<path class="st0" d="M-11.2-145.5c0.4,0.3,1.2,0.8,1.8-0.1c1.9-3,1.1-1.8,3.1-4.8c1.2-1.9,5.1-8.6,5.1-8.6
					c0.6-1.2-1.8-1.6-2-1.3c-0.3,0.4-2.7,4.2-3,4.8c-0.4,0.8-1,1.7-1.6,2.6l-0.1,0.2c-0.6-1.1-2.3-4.2-3.1-6.4
					c-0.1-0.2-0.4-1.1-1.2-1.2c-0.7-0.2-1.6,0.2-1.6,0.6c0.1,0.5,0.6,1.5,1.8,4.1c0.9,1.9,2.2,4.2,2.8,5.3c-0.2,0.5-0.6,1-0.7,1.2
					c-0.9,1.4-0.9,1.5-1.3,2C-11.6-146.3-11.7-145.8-11.2-145.5z"/>
			</g>
		</g>
	</g>
</g>
</svg>
